<svg version="1.1" xmlns="http://www.w3.org/2000/svg" style="display: block;" viewBox="0 0 2048 2048" width="512" height="512" preserveAspectRatio="none">
<path transform="translate(0,0)" fill="rgb(250,237,205)" d="M 1026.63 539.261 C 1108.41 425.959 1247.15 376.196 1382.7 376.795 L 1619.47 376.829 C 1646.28 376.832 1674.51 377.377 1701.18 376.822 L 1701.18 549.001 C 1721.55 546.369 1782.58 545.716 1797.24 556.23 C 1822.96 574.69 1817.79 610.172 1817.79 638.931 L 1817.8 1467.57 C 1817.92 1573.85 1833.22 1589.1 1713.12 1589.06 L 1208.01 1589.03 C 1181.01 1605.07 1150.04 1647.86 1122.28 1668.45 L 997.837 1668.47 C 977.528 1668.48 950.535 1669.36 930.659 1668.45 C 903.741 1645.68 874.521 1610.66 847.548 1591.01 C 790.556 1589.33 733.484 1589.86 676.462 1589.8 L 338.362 1589.09 C 254.838 1589.37 233.961 1596.07 233.942 1495.75 L 233.965 666.88 C 233.938 544.211 230.308 549.35 351.298 549.001 C 349.916 492.923 353.272 432.113 351.298 376.822 L 568.929 376.809 C 691.529 376.803 780.12 369.861 892.541 429.102 C 959.62 464.45 976.7 494.291 1026.63 539.261 z"/>
<path transform="translate(0,0)" fill="rgb(204,213,174)" d="M 1701.18 549.001 C 1721.55 546.369 1782.58 545.716 1797.24 556.23 C 1822.96 574.69 1817.79 610.172 1817.79 638.931 L 1817.8 1467.57 C 1817.92 1573.85 1833.22 1589.1 1713.12 1589.06 L 1208.01 1589.03 C 1181.01 1605.07 1150.04 1647.86 1122.28 1668.45 L 997.837 1668.47 C 977.528 1668.48 950.535 1669.36 930.659 1668.45 C 903.741 1645.68 874.521 1610.66 847.548 1591.01 C 790.556 1589.33 733.484 1589.86 676.462 1589.8 L 338.362 1589.09 C 254.838 1589.37 233.961 1596.07 233.942 1495.75 L 233.965 666.88 C 233.938 544.211 230.308 549.35 351.298 549.001 L 351.298 1462.16 C 361.547 1463.15 384.399 1462.24 395.88 1462.21 L 719.763 1462.16 C 833.498 1462.14 903.817 1446.28 993.828 1536.56 C 1004.6 1547.36 1015.58 1560.86 1026.63 1572.44 C 1099.19 1463.03 1220.48 1457.98 1336.49 1458.02 L 1623.56 1458.05 C 1648.03 1458.04 1677.13 1457.13 1701.18 1458.05 L 1701.18 549.001 z"/>
<path transform="translate(0,0)" fill="rgb(254,254,254)" d="M 488.228 454.141 L 625.891 454.118 C 745.955 454.052 846.806 461.542 937.952 555.937 C 1005.81 626.209 1000.3 617.52 1000.15 706.821 L 1000.25 1521.67 C 988.709 1508.56 983.607 1498.52 969.005 1483.4 C 878.585 1369.24 703.517 1370.26 572.764 1370.17 L 425.119 1370.21 C 423.828 1349.76 425.112 1313.39 425.121 1291.61 L 425.122 629.334 C 425.12 593.807 423.941 502.484 426.477 462.188 C 427.031 453.392 475.234 454.263 488.228 454.141 z"/>
<path transform="translate(0,0)" fill="rgb(176,193,92)" d="M 652.23 543.995 L 704.85 543.995 L 704.85 626.054 C 745.224 625.963 819.56 610.211 838.25 646.936 C 815.108 697.137 798.756 743.047 764.143 787.449 C 750.021 807.204 731.45 823.245 717.549 842.775 C 742.749 863.505 768.399 882.214 796.831 898.228 C 813.857 907.817 853.085 918.418 855.45 941.458 C 856.636 953.005 843.785 968.945 832.05 969.562 C 802.6 971.113 707.062 899.114 682.457 877.752 C 651.932 898.666 569.185 961.802 532.878 967.038 C 518.719 965.014 511.865 959.62 505.544 946.984 C 501.187 926.934 513.262 920.951 529.388 913.619 C 570.482 894.936 609.015 870.702 644.343 842.775 C 610.003 800.532 588.554 776.981 559.175 730.794 C 571.327 720.53 587.805 711.557 602.319 705.153 C 626.201 745.09 651.606 774.491 682.457 808.168 C 716.318 760.852 749.232 735.814 770.455 674.817 L 618.527 674.832 C 594.006 674.833 568.371 675.632 543.969 673.864 C 523.594 672.203 520.583 642.901 533.758 631.896 C 543.68 623.609 572.444 625.946 585.221 625.952 L 652.23 626.054 C 653.332 601.661 652.273 569.132 652.23 543.995 z"/>
<path transform="translate(0,0)" fill="rgb(233,237,201)" d="M 541.642 1064.32 L 819.564 1064.27 C 833.376 1064.28 846.096 1063.92 859.97 1065.27 C 892.138 1068.4 910.74 1124.7 838.25 1125.04 L 558.212 1125.06 C 544.398 1125.06 528.632 1125.68 515.047 1123.92 C 487.634 1119.46 466.288 1066.12 541.642 1064.32 z"/>
<path transform="translate(0,0)" fill="rgb(233,237,201)" d="M 723.735 1280.96 C 661.832 1276.95 589.949 1281.57 526.641 1280.55 C 479.581 1279.79 481.58 1224.95 515.82 1221.59 C 529.411 1220.26 544.321 1220.46 558.42 1220.45 L 693.095 1220.41 C 701.204 1220.4 716.585 1219.76 723.735 1220.47 C 700.691 1242.14 696.846 1260.04 723.735 1280.96 z"/>
<path transform="translate(0,0)" fill="rgb(212,163,115)" d="M 723.735 1220.47 L 809.764 1220.43 C 832.476 1220.4 889.056 1213.61 887.388 1250.94 C 886.477 1283.08 855.109 1280.8 832.349 1281.02 C 802.786 1281.04 750.459 1284.31 723.735 1280.96 C 696.846 1260.04 700.691 1242.14 723.735 1220.47 z"/>
<path transform="translate(0,0)" fill="rgb(254,254,254)" d="M 1359.9 452.117 L 1621.76 452.117 L 1621.76 1370.21 C 1605.82 1371.24 1581.56 1370.25 1564.66 1370.23 L 1448.79 1370.18 C 1371.16 1370.17 1280.04 1369.5 1208.01 1403.01 C 1176.96 1410.39 1114.16 1450.27 1090.46 1472.49 C 1076.88 1485.23 1066.62 1500.58 1049.89 1514.17 C 1053.02 1488.25 1049.85 1469.98 1049.85 1444.51 L 1049.82 685.246 C 1049.75 618.069 1047.9 625.211 1095.89 571.204 C 1168.14 489.882 1255.61 458.603 1359.9 452.117 z"/>
<path transform="translate(0,0)" fill="rgb(233,237,201)" d="M 1211.58 1220.47 L 1491.43 1220.38 C 1515.26 1220.26 1556.89 1213.96 1559.96 1249.96 C 1562.39 1278.45 1529.76 1281.04 1510.16 1280.96 L 1224.4 1280.99 C 1211.54 1280.99 1198.15 1281.42 1185.58 1280.16 C 1157.69 1277.36 1132.4 1220.96 1211.58 1220.47 z"/>
<path transform="translate(0,0)" fill="rgb(233,237,201)" d="M 1388.92 1064.32 L 1482.7 1064.22 C 1505.71 1064.16 1562.64 1056.71 1559.09 1095.04 C 1555.34 1135.47 1500.36 1125.11 1468.56 1125.1 L 1330.47 1125.04 L 1234.04 1125.13 C 1214.24 1125.14 1185.08 1130.2 1168.69 1116.74 C 1149.94 1102.27 1161.42 1068.29 1183.54 1065.84 C 1206.17 1063.32 1231.51 1064.29 1254.39 1064.29 L 1388.92 1064.32 z"/>
<path transform="translate(0,0)" fill="rgb(233,237,201)" d="M 1336.27 907.639 L 1465.97 907.616 C 1488.19 907.571 1511.07 906.285 1533.18 908.575 C 1567.75 912.156 1566.04 959.559 1536.35 965.975 C 1524.56 968.521 1498.73 967.107 1485.37 967.107 L 1382.5 967.038 L 1197.73 967.42 C 1144.87 967.437 1150.33 911.528 1185.37 908.881 C 1204.67 907.423 1221.36 907.602 1240.07 907.597 L 1336.27 907.639 z"/>
<path transform="translate(0,0)" fill="rgb(233,237,201)" d="M 1378.74 651.853 C 1369.01 652.343 1355.58 651.809 1345.42 651.811 L 1222.62 651.892 C 1198.82 651.935 1156.63 656.043 1156.92 621.43 C 1157.2 588.151 1196.14 592.957 1217.89 592.934 L 1346.22 593.04 C 1354.84 593.057 1370.91 592.454 1378.74 592.963 C 1354.81 615.398 1350.07 630.774 1378.74 651.853 z"/>
<path transform="translate(0,0)" fill="rgb(233,237,201)" d="M 1374.18 808.168 C 1368.82 808.617 1354.48 808.176 1348.6 808.177 L 1225.82 808.218 C 1211.75 808.219 1194.38 809.289 1180.31 806.639 C 1156.36 802.127 1151.11 765.486 1171.24 752.799 C 1183.34 745.179 1362.87 747.174 1378.74 752.705 C 1350.62 766.405 1354.55 788.608 1374.18 808.168 z"/>
<path transform="translate(0,0)" fill="rgb(212,163,115)" d="M 1378.74 592.963 C 1392.9 593.725 1406.17 593.088 1420.32 592.979 L 1485.17 592.903 C 1513.04 592.945 1564.96 586.998 1558.54 630.628 C 1553.14 667.397 1412.61 650.722 1378.74 651.853 C 1350.07 630.774 1354.81 615.398 1378.74 592.963 z"/>
<path transform="translate(0,0)" fill="rgb(212,163,115)" d="M 1378.74 752.705 C 1399.23 750.458 1432.62 752.62 1454.89 752.664 L 1504.53 752.651 C 1590.38 752.517 1560.6 809.471 1525.14 808.356 C 1478.05 806.875 1419.27 812.301 1374.18 808.168 C 1354.55 788.608 1350.62 766.405 1378.74 752.705 z"/>
</svg>